{
  "accessors": [
    {
      "bufferView": 1,
      "componentType": 5126,
      "count": 65532,
      "max": [
        20.282609939575195,
        9.0242176055908203,
        19.917701721191406
      ],
      "min": [
        1.7511224746704102,
        0.0054340362548828125,
        0
      ],
      "type": "VEC3"
    },
    {
      "bufferView": 1,
      "byteOffset": 786384,
      "componentType": 5126,
      "count": 65532,
      "max": [
        0.99997735023498535,
        1,
        0.99999237060546875
      ],
      "min": [
        -0.99998897314071655,
        -0.99999701976776123,
        -0.99999392032623291
      ],
      "type": "VEC3"
    },
    {
      "bufferView": 0,
      "componentType": 5125,
      "count": 336579,
      "max": [
        65531
      ],
      "min": [
        0
      ],
      "type": "SCALAR"
    },
    {
      "bufferView": 1,
      "byteOffset": 1572768,
      "componentType": 5126,
      "count": 65532,
      "max": [
        19.967866897583008,
        8.8348293304443359,
        19.788578033447266
      ],
      "min": [
        0.36269378662109375,
        0.035663604736328125,
        0.014225006103515625
      ],
      "type": "VEC3"
    },
    {
      "bufferView": 1,
      "byteOffset": 2359152,
      "componentType": 5126,
      "count": 65532,
      "max": [
        0.99997556209564209,
        0.9999312162399292,
        0.99992680549621582
      ],
      "min": [
        -0.99997049570083618,
        -0.99999994039535522,
        -0.99999600648880005
      ],
      "type": "VEC3"
    },
    {
      "bufferView": 0,
      "byteOffset": 1346316,
      "componentType": 5125,
      "count": 311016,
      "max": [
        65531
      ],
      "min": [
        0
      ],
      "type": "SCALAR"
    },
    {
      "bufferView": 1,
      "byteOffset": 3145536,
      "componentType": 5126,
      "count": 65532,
      "max": [
        19.979557037353516,
        9.0016088485717773,
        19.666805267333984
      ],
      "min": [
        0,
        0,
        0.068117141723632812
      ],
      "type": "VEC3"
    },
    {
      "bufferView": 1,
      "byteOffset": 3931920,
      "componentType": 5126,
      "count": 65532,
      "max": [
        0.99997556209564209,
        0.99998843669891357,
        0.99999076128005981
      ],
      "min": [
        -0.99998980760574341,
        -0.99999731779098511,
        -0.99998772144317627
      ],
      "type": "VEC3"
    },
    {
      "bufferView": 0,
      "byteOffset": 2590380,
      "componentType": 5125,
      "count": 326721,
      "max": [
        65531
      ],
      "min": [
        0
      ],
      "type": "SCALAR"
    },
    {
      "bufferView": 1,
      "byteOffset": 4718304,
      "componentType": 5126,
      "count": 65532,
      "max": [
        19.855079650878906,
        7.7331948280334473,
        19.804019927978516
      ],
      "min": [
        0.033037185668945312,
        0.24024105072021484,
        0.029661178588867188
      ],
      "type": "VEC3"
    },
    {
      "bufferView": 1,
      "byteOffset": 5504688,
      "componentType": 5126,
      "count": 65532,
      "max": [
        0.99996781349182129,
        0.99999642372131348,
        0.99998956918716431
      ],
      "min": [
        -0.99999302625656128,
        -0.99999898672103882,
        -0.9999120831489563
      ],
      "type": "VEC3"
    },
    {
      "bufferView": 0,
      "byteOffset": 3897264,
      "componentType": 5125,
      "count": 324114,
      "max": [
        65531
      ],
      "min": [
        0
      ],
      "type": "SCALAR"
    },
    {
      "bufferView": 1,
      "byteOffset": 6291072,
      "componentType": 5126,
      "count": 65532,
      "max": [
        19.968624114990234,
        7.3368229866027832,
        19.908231735229492
      ],
      "min": [
        0.25663185119628906,
        0.031404495239257812,
        0.003810882568359375
      ],
      "type": "VEC3"
    },
    {
      "bufferView": 1,
      "byteOffset": 7077456,
      "componentType": 5126,
      "count": 65532,
      "max": [
        0.99981069564819336,
        0.99949824810028076,
        0.99998879432678223
      ],
      "min": [
        -0.99998897314071655,
        -0.99996185302734375,
        -0.99996572732925415
      ],
      "type": "VEC3"
    },
    {
      "bufferView": 0,
      "byteOffset": 5193720,
      "componentType": 5125,
      "count": 325488,
      "max": [
        65531
      ],
      "min": [
        0
      ],
      "type": "SCALAR"
    },
    {
      "bufferView": 1,
      "byteOffset": 7863840,
      "componentType": 5126,
      "count": 65532,
      "max": [
        20.103565216064453,
        9.0242176055908203,
        18.916065216064453
      ],
      "min": [
        0.0042581558227539062,
        0.018906593322753906,
        0.015979766845703125
      ],
      "type": "VEC3"
    },
    {
      "bufferView": 1,
      "byteOffset": 8650224,
      "componentType": 5126,
      "count": 65532,
      "max": [
        0.99997735023498535,
        1,
        0.99999672174453735
      ],
      "min": [
        -0.99998980760574341,
        -0.99999982118606567,
        -0.99984270334243774
      ],
      "type": "VEC3"
    },
    {
      "bufferView": 0,
      "byteOffset": 6495672,
      "componentType": 5125,
      "count": 324642,
      "max": [
        65531
      ],
      "min": [
        0
      ],
      "type": "SCALAR"
    },
    {
      "bufferView": 1,
      "byteOffset": 9436608,
      "componentType": 5126,
      "count": 65532,
      "max": [
        19.427177429199219,
        9.0242176055908203,
        19.668956756591797
      ],
      "min": [
        0.36534214019775391,
        0.02339935302734375,
        0.29551792144775391
      ],
      "type": "VEC3"
    },
    {
      "bufferView": 1,
      "byteOffset": 10222992,
      "componentType": 5126,
      "count": 65532,
      "max": [
        0.99991297721862793,
        0.99999570846557617,
        0.99977278709411621
      ],
      "min": [
        -0.99996888637542725,
        -0.99999821186065674,
        -0.9999651312828064
      ],
      "type": "VEC3"
    },
    {
      "bufferView": 0,
      "byteOffset": 7794240,
      "componentType": 5125,
      "count": 319497,
      "max": [
        65531
      ],
      "min": [
        0
      ],
      "type": "SCALAR"
    },
    {
      "bufferView": 1,
      "byteOffset": 11009376,
      "componentType": 5126,
      "count": 65532,
      "max": [
        20.03643798828125,
        9.0242176055908203,
        19.903362274169922
      ],
      "min": [
        0.88722801208496094,
        0.020112991333007812,
        0.017798423767089844
      ],
      "type": "VEC3"
    },
    {
      "bufferView": 1,
      "byteOffset": 11795760,
      "componentType": 5126,
      "count": 65532,
      "max": [
        0.99996805191040039,
        1,
        0.99999845027923584
      ],
      "min": [
        -0.99997538328170776,
        -0.99999994039535522,
        -0.99998772144317627
      ],
      "type": "VEC3"
    },
    {
      "bufferView": 0,
      "byteOffset": 9072228,
      "componentType": 5125,
      "count": 299520,
      "max": [
        65531
      ],
      "min": [
        0
      ],
      "type": "SCALAR"
    },
    {
      "bufferView": 1,
      "byteOffset": 12582144,
      "componentType": 5126,
      "count": 65533,
      "max": [
        20.281688690185547,
        9.0242176055908203,
        19.908174514770508
      ],
      "min": [
        0.040017127990722656,
        0.020461082458496094,
        0.021733283996582031
      ],
      "type": "VEC3"
    },
    {
      "bufferView": 1,
      "byteOffset": 13368540,
      "componentType": 5126,
      "count": 65533,
      "max": [
        0.99997735023498535,
        0.99999868869781494,
        0.99997872114181519
      ],
      "min": [
        -0.99999302625656128,
        -0.99999308586120605,
        -0.9998285174369812
      ],
      "type": "VEC3"
    },
    {
      "bufferView": 0,
      "byteOffset": 10270308,
      "componentType": 5125,
      "count": 227043,
      "max": [
        65532
      ],
      "min": [
        0
      ],
      "type": "SCALAR"
    },
    {
      "bufferView": 1,
      "byteOffset": 14154936,
      "componentType": 5126,
      "count": 35602,
      "max": [
        20.266834259033203,
        9.0242176055908203,
        19.917751312255859
      ],
      "min": [
        0.00159454345703125,
        0.012166023254394531,
        0.021271705627441406
      ],
      "type": "VEC3"
    },
    {
      "bufferView": 1,
      "byteOffset": 14582160,
      "componentType": 5126,
      "count": 35602,
      "max": [
        0.99984341859817505,
        0.99997502565383911,
        0.99994832277297974
      ],
      "min": [
        -0.9999348521232605,
        -0.99997752904891968,
        -0.99977827072143555
      ],
      "type": "VEC3"
    },
    {
      "bufferView": 0,
      "byteOffset": 11178480,
      "componentType": 5125,
      "count": 102150,
      "max": [
        35601
      ],
      "min": [
        0
      ],
      "type": "SCALAR"
    }
  ],
  "asset": {
    "generator": "Sketchfab (OSG glTF plugin)",
    "version": "2.0"
  },
  "bufferViews": [
    {
      "buffer": 0,
      "byteLength": 11587080,
      "byteOffset": 0,
      "name": "floatBufferViews",
      "target": 34963
    },
    {
      "buffer": 0,
      "byteLength": 15009384,
      "byteOffset": 11587080,
      "byteStride": 12,
      "name": "floatBufferViews",
      "target": 34962
    }
  ],
  "buffers": [
    {
      "byteLength": 26596464,
      "uri": "scene.bin"
    }
  ],
  "extensionsRequired": [
    "KHR_materials_pbrSpecularGlossiness"
  ],
  "extensionsUsed": [
    "KHR_materials_pbrSpecularGlossiness"
  ],
  "materials": [
    {
      "alphaCutoff": 0.5,
      "alphaMode": "BLEND",
      "doubleSided": true,
      "emissiveFactor": [
        0.050976149999999998,
        0.050976149999999998,
        0.050976149999999998
      ],
      "extensions": {
        "KHR_materials_pbrSpecularGlossiness": {
          "diffuseFactor": [
            1,
            1,
            1,
            0.41331232420000003
          ],
          "glossinessFactor": 0,
          "specularFactor": [
            1,
            1,
            1
          ]
        }
      },
      "name": "Scene - Root",
      "occlusionFactor": 1
    }
  ],
  "meshes": [
    {
      "primitives": [
        {
          "attributes": {
            "NORMAL": 1,
            "POSITION": 0
          },
          "indices": 2,
          "material": 0,
          "mode": 4
        }
      ]
    },
    {
      "primitives": [
        {
          "attributes": {
            "NORMAL": 4,
            "POSITION": 3
          },
          "indices": 5,
          "material": 0,
          "mode": 4
        }
      ]
    },
    {
      "primitives": [
        {
          "attributes": {
            "NORMAL": 7,
            "POSITION": 6
          },
          "indices": 8,
          "material": 0,
          "mode": 4
        }
      ]
    },
    {
      "primitives": [
        {
          "attributes": {
            "NORMAL": 10,
            "POSITION": 9
          },
          "indices": 11,
          "material": 0,
          "mode": 4
        }
      ]
    },
    {
      "primitives": [
        {
          "attributes": {
            "NORMAL": 13,
            "POSITION": 12
          },
          "indices": 14,
          "material": 0,
          "mode": 4
        }
      ]
    },
    {
      "primitives": [
        {
          "attributes": {
            "NORMAL": 16,
            "POSITION": 15
          },
          "indices": 17,
          "material": 0,
          "mode": 4
        }
      ]
    },
    {
      "primitives": [
        {
          "attributes": {
            "NORMAL": 19,
            "POSITION": 18
          },
          "indices": 20,
          "material": 0,
          "mode": 4
        }
      ]
    },
    {
      "primitives": [
        {
          "attributes": {
            "NORMAL": 22,
            "POSITION": 21
          },
          "indices": 23,
          "material": 0,
          "mode": 4
        }
      ]
    },
    {
      "primitives": [
        {
          "attributes": {
            "NORMAL": 25,
            "POSITION": 24
          },
          "indices": 26,
          "material": 0,
          "mode": 4
        }
      ]
    },
    {
      "primitives": [
        {
          "attributes": {
            "NORMAL": 28,
            "POSITION": 27
          },
          "indices": 29,
          "material": 0,
          "mode": 4
        }
      ]
    }
  ],
  "nodes": [
    {
      "children": [
        1
      ],
      "name": "RootNode (gltf orientation matrix)",
      "rotation": [
        -0.70710678118654746,
        -0,
        -0,
        0.70710678118654757
      ]
    },
    {
      "children": [
        2
      ],
      "matrix": [
        1,
        0,
        0,
        0,
        0,
        0.026963280513882637,
        -0.99963641166687012,
        0,
        0,
        0.99963641166687012,
        0.026963280513882637,
        0,
        0,
        -8.9906415939331055,
        -9.5202817916870117,
        1
      ],
      "name": "RootNode (model correction matrix)"
    },
    {
      "children": [
        3
      ],
      "matrix": [
        1,
        0,
        0,
        0,
        0,
        1,
        0,
        0,
        0,
        0,
        1,
        0,
        -9.8269672393798828,
        -13.897726058959961,
        -10.100842475891113,
        1
      ],
      "name": "meshmudboxedreduced.obj.cleaner.materialmerger.gles"
    },
    {
      "children": [
        14
      ],
      "name": ""
    },
    {
      "mesh": 0,
      "name": ""
    },
    {
      "mesh": 1,
      "name": ""
    },
    {
      "mesh": 2,
      "name": ""
    },
    {
      "mesh": 3,
      "name": ""
    },
    {
      "mesh": 4,
      "name": ""
    },
    {
      "mesh": 5,
      "name": ""
    },
    {
      "mesh": 6,
      "name": ""
    },
    {
      "mesh": 7,
      "name": ""
    },
    {
      "mesh": 8,
      "name": ""
    },
    {
      "mesh": 9,
      "name": ""
    },
    {
      "children": [
        4,
        5,
        6,
        7,
        8,
        9,
        10,
        11,
        12,
        13
      ],
      "name": "Geode"
    }
  ],
  "scene": 0,
  "scenes": [
    {
      "name": "OSG_Scene",
      "nodes": [
        0
      ]
    }
  ]
}

