{
    "accessors": [
        {
            "bufferView": 1,
            "byteOffset": 0,
            "componentType": 5123,
            "count": 54,
            "max": [
                51
            ],
            "min": [
                0
            ],
            "name": "accessor_buffer_Cone.003_2",
            "type": "SCALAR"
        },
        {
            "bufferView": 0,
            "byteOffset": 12,
            "componentType": 5126,
            "count": 52,
            "max": [
                0.9555596709251404,
                0.9117844104766846,
                0.24190199375152588
            ],
            "min": [
                -0.9555597305297852,
                -0.9703006148338318,
                -1.0
            ],
            "name": "accessor_buffer_Cone.003_1",
            "type": "VEC3"
        },
        {
            "bufferView": 0,
            "byteOffset": 0,
            "componentType": 5126,
            "count": 52,
            "max": [
                0.38407501578330994,
                0.38999998569488525,
                0.7350000143051147
            ],
            "min": [
                -0.38407498598098755,
                -0.36648014187812805,
                -0.7350000143051147
            ],
            "name": "accessor_buffer_Cone.003_0",
            "type": "VEC3"
        },
        {
            "bufferView": 2,
            "byteOffset": 0,
            "componentType": 5126,
            "count": 84,
            "max": [
                0.048746395856142044,
                0.05000000074505806,
                1.0
            ],
            "min": [
                -0.048746395856142044,
                -0.05000048875808716,
                -0.00011327723041176796
            ],
            "name": "accessor_buffer_Cylinder.002_0",
            "type": "VEC3"
        },
        {
            "bufferView": 3,
            "byteOffset": 0,
            "componentType": 5123,
            "count": 156,
            "max": [
                83
            ],
            "min": [
                0
            ],
            "name": "accessor_buffer_Cylinder.002_2",
            "type": "SCALAR"
        },
        {
            "bufferView": 2,
            "byteOffset": 12,
            "componentType": 5126,
            "count": 84,
            "max": [
                1.0,
                0.9749280214309692,
                0.9999999403953552
            ],
            "min": [
                -1.0,
                -0.9749279618263245,
                -0.9999999403953552
            ],
            "name": "accessor_buffer_Cylinder.002_1",
            "type": "VEC3"
        },
        {
            "bufferView": 4,
            "byteOffset": 12,
            "componentType": 5126,
            "count": 84,
            "max": [
                1.0,
                0.9749280214309692,
                0.9999999403953552
            ],
            "min": [
                -1.0,
                -0.9749279618263245,
                -0.9999999403953552
            ],
            "name": "accessor_buffer_Cylinder.003_1",
            "type": "VEC3"
        },
        {
            "bufferView": 5,
            "byteOffset": 0,
            "componentType": 5123,
            "count": 156,
            "max": [
                83
            ],
            "min": [
                0
            ],
            "name": "accessor_buffer_Cylinder.003_2",
            "type": "SCALAR"
        },
        {
            "bufferView": 4,
            "byteOffset": 0,
            "componentType": 5126,
            "count": 84,
            "max": [
                0.048746395856142044,
                0.05000000074505806,
                1.0
            ],
            "min": [
                -0.048746395856142044,
                -0.05000048875808716,
                -0.00011327723041176796
            ],
            "name": "accessor_buffer_Cylinder.003_0",
            "type": "VEC3"
        },
        {
            "bufferView": 6,
            "byteOffset": 0,
            "componentType": 5126,
            "count": 270,
            "max": [
                6.456064701080322,
                6.460000038146973,
                0.07000001519918442
            ],
            "min": [
                -6.456064701080322,
                -6.444263935089111,
                -0.07000001519918442
            ],
            "name": "accessor_buffer_Cylinder.004_0",
            "type": "VEC3"
        },
        {
            "bufferView": 7,
            "byteOffset": 0,
            "componentType": 5123,
            "count": 528,
            "max": [
                269
            ],
            "min": [
                0
            ],
            "name": "accessor_buffer_Cylinder.004_2",
            "type": "SCALAR"
        },
        {
            "bufferView": 6,
            "byteOffset": 12,
            "componentType": 5126,
            "count": 270,
            "max": [
                0.9993908405303955,
                0.9975640773773193,
                1.0
            ],
            "min": [
                -0.9993908405303955,
                -1.0,
                -1.0
            ],
            "name": "accessor_buffer_Cylinder.004_1",
            "type": "VEC3"
        },
        {
            "bufferView": 8,
            "byteOffset": 0,
            "componentType": 5126,
            "count": 2670,
            "max": [
                6.550000190734863,
                6.537075042724609,
                0.048746395856142044
            ],
            "min": [
                -6.550000190734863,
                -6.537075042724609,
                -0.048746395856142044
            ],
            "name": "accessor_buffer_Torus.004_0",
            "type": "VEC3"
        },
        {
            "bufferView": 8,
            "byteOffset": 12,
            "componentType": 5126,
            "count": 2670,
            "max": [
                0.9730956554412842,
                0.9750145673751831,
                1.0
            ],
            "min": [
                -0.9730955958366394,
                -0.9750145673751831,
                -1.0
            ],
            "name": "accessor_buffer_Torus.004_1",
            "type": "VEC3"
        },
        {
            "bufferView": 9,
            "byteOffset": 0,
            "componentType": 5123,
            "count": 4200,
            "max": [
                2669
            ],
            "min": [
                0
            ],
            "name": "accessor_buffer_Torus.004_2",
            "type": "SCALAR"
        },
        {
            "bufferView": 10,
            "byteOffset": 0,
            "componentType": 5126,
            "count": 2670,
            "max": [
                6.550000190734863,
                6.537075042724609,
                0.048746395856142044
            ],
            "min": [
                -6.550000190734863,
                -6.537075042724609,
                -0.048746395856142044
            ],
            "name": "accessor_buffer_Torus.005_0",
            "type": "VEC3"
        },
        {
            "bufferView": 11,
            "byteOffset": 0,
            "componentType": 5123,
            "count": 4200,
            "max": [
                2669
            ],
            "min": [
                0
            ],
            "name": "accessor_buffer_Torus.005_2",
            "type": "SCALAR"
        },
        {
            "bufferView": 10,
            "byteOffset": 12,
            "componentType": 5126,
            "count": 2670,
            "max": [
                0.9730956554412842,
                0.9750145673751831,
                1.0
            ],
            "min": [
                -0.9730955958366394,
                -0.9750145673751831,
                -1.0
            ],
            "name": "accessor_buffer_Torus.005_1",
            "type": "VEC3"
        }
    ],
    "asset": {
        "version": "2.0"
    },
    "bufferViews": [
        {
            "buffer": 0,
            "byteLength": 1248,
            "byteOffset": 0,
            "byteStride": 24,
            "name": "bufferView_buffer_Cone.003_0",
            "target": 34962
        },
        {
            "buffer": 0,
            "byteLength": 108,
            "byteOffset": 1248,
            "name": "bufferView_buffer_Cone.003_1",
            "target": 34963
        },
        {
            "buffer": 1,
            "byteLength": 2016,
            "byteOffset": 0,
            "byteStride": 24,
            "name": "bufferView_buffer_Cylinder.002_0",
            "target": 34962
        },
        {
            "buffer": 1,
            "byteLength": 312,
            "byteOffset": 2016,
            "name": "bufferView_buffer_Cylinder.002_1",
            "target": 34963
        },
        {
            "buffer": 2,
            "byteLength": 2016,
            "byteOffset": 0,
            "byteStride": 24,
            "name": "bufferView_buffer_Cylinder.003_0",
            "target": 34962
        },
        {
            "buffer": 2,
            "byteLength": 312,
            "byteOffset": 2016,
            "name": "bufferView_buffer_Cylinder.003_1",
            "target": 34963
        },
        {
            "buffer": 3,
            "byteLength": 6480,
            "byteOffset": 0,
            "byteStride": 24,
            "name": "bufferView_buffer_Cylinder.004_0",
            "target": 34962
        },
        {
            "buffer": 3,
            "byteLength": 1056,
            "byteOffset": 6480,
            "name": "bufferView_buffer_Cylinder.004_1",
            "target": 34963
        },
        {
            "buffer": 4,
            "byteLength": 64080,
            "byteOffset": 0,
            "byteStride": 24,
            "name": "bufferView_buffer_Torus.004_0",
            "target": 34962
        },
        {
            "buffer": 4,
            "byteLength": 8400,
            "byteOffset": 64080,
            "name": "bufferView_buffer_Torus.004_1",
            "target": 34963
        },
        {
            "buffer": 5,
            "byteLength": 64080,
            "byteOffset": 0,
            "byteStride": 24,
            "name": "bufferView_buffer_Torus.005_0",
            "target": 34962
        },
        {
            "buffer": 5,
            "byteLength": 8400,
            "byteOffset": 64080,
            "name": "bufferView_buffer_Torus.005_1",
            "target": 34963
        }
    ],
    "buffers": [
        {
            "byteLength": 1356,
            "name": "buffer_Cone.003",
            "uri": "data:application/octet-stream;base64,"
        },
        {
            "byteLength": 2328,
            "name": "buffer_Cylinder.002",
            "uri": "data:application/octet-stream;base64,"
        },
        {
            "byteLength": 2328,
            "name": "buffer_Cylinder.003",
            "uri": "data:application/octet-stream;base64,"
        },
        {
            "byteLength": 7536,
            "name": "buffer_Cylinder.004",
            "uri": "data:application/octet-stream;base64,"
        },
        {
            "byteLength": 72480,
            "name": "buffer_Torus.004",
            "uri": "data:application/octet-stream;base64,"
        },
        {
            "byteLength": 72480,
            "name": "buffer_Torus.005",
            "uri": "data:application/octet-stream;base64,"
        }
    ],
    "cameras": [
        {
            "name": "Camera",
            "perspective": {
                "aspectRatio": 1.703595982340029,
                "yfov": 0.5033799409866333,
                "zfar": 100.0,
                "znear": 0.10000000149011612
            },
            "type": "perspective"
        }
    ],
    "materials": [
        {
            "emissiveFactor": [
                0.0,
                0.0,
                0.0
            ],
            "name": "Material.001",
            "pbrMetallicRoughness": {
                "baseColorFactor": [
                    0.045652858912944794,
                    0.64000004529953,
                    0.10674728453159332,
                    1.0
                ],
                "metallicFactor": 0.0,
                "roughnessFactor": 1.0
            }
        }
    ],
    "meshes": [
        {
            "name": "Cone.003",
            "primitives": [
                {
                    "attributes": {
                        "NORMAL": 1,
                        "POSITION": 2
                    },
                    "indices": 0,
                    "mode": 4
                }
            ]
        },
        {
            "name": "Cylinder.002",
            "primitives": [
                {
                    "attributes": {
                        "NORMAL": 5,
                        "POSITION": 3
                    },
                    "indices": 4,
                    "mode": 4
                }
            ]
        },
        {
            "name": "Cylinder.003",
            "primitives": [
                {
                    "attributes": {
                        "NORMAL": 6,
                        "POSITION": 8
                    },
                    "indices": 7,
                    "mode": 4
                }
            ]
        },
        {
            "name": "Cylinder.004",
            "primitives": [
                {
                    "attributes": {
                        "NORMAL": 11,
                        "POSITION": 9
                    },
                    "indices": 10,
                    "material": 0,
                    "mode": 4
                }
            ]
        },
        {
            "name": "Torus.004",
            "primitives": [
                {
                    "attributes": {
                        "NORMAL": 13,
                        "POSITION": 12
                    },
                    "indices": 14,
                    "mode": 4
                }
            ]
        },
        {
            "name": "Torus.005",
            "primitives": [
                {
                    "attributes": {
                        "NORMAL": 17,
                        "POSITION": 15
                    },
                    "indices": 16,
                    "mode": 4
                }
            ]
        }
    ],
    "nodes": [
        {
            "camera": 0,
            "name": "Camera",
            "rotation": [
                0.483536034822464,
                0.20870360732078552,
                0.33687159419059753,
                0.7804827094078064
            ],
            "scale": [
                1.0,
                1.0,
                1.0
            ],
            "translation": [
                0.0,
                0.0,
                2.371581792831421
            ]
        },
        {
            "mesh": 0,
            "name": "Cone",
            "rotation": [
                1.0,
                0.0,
                0.0,
                -7.549790126404332e-08
            ],
            "scale": [
                0.4785318970680237,
                0.4785318970680237,
                0.4785318970680237
            ],
            "translation": [
                0.0,
                0.0,
                6.932183265686035
            ]
        },
        {
            "mesh": 1,
            "name": "Cylinder",
            "rotation": [
                -1.5700925641616852e-16,
                0.7071068286895752,
                0.7071068286895752,
                0.0
            ],
            "scale": [
                -1.0,
                -1.0,
                -6.459790229797363
            ],
            "translation": [
                0.0,
                0.0,
                0.0
            ]
        },
        {
            "mesh": 2,
            "name": "Cylinder.001",
            "rotation": [
                -1.5192864691941882e-16,
                0.8626495003700256,
                0.5058022141456604,
                -3.9618033813908974e-17
            ],
            "scale": [
                -1.0,
                -1.0,
                -6.459790229797363
            ],
            "translation": [
                0.0,
                0.0,
                0.0
            ]
        },
        {
            "mesh": 3,
            "name": "Cylinder.002",
            "rotation": [
                0.0,
                0.0,
                0.0,
                1.0
            ],
            "scale": [
                1.0,
                1.0,
                1.0
            ],
            "translation": [
                0.0,
                0.0,
                -0.1363072246313095
            ]
        },
        {
            "name": "Lamp",
            "rotation": [
                0.16907575726509094,
                0.27217137813568115,
                0.7558802962303162,
                0.570947527885437
            ],
            "scale": [
                1.0,
                0.9999999403953552,
                1.0
            ],
            "translation": [
                4.076245307922363,
                1.0054539442062378,
                5.903861999511719
            ]
        },
        {
            "mesh": 5,
            "name": "Torus.000",
            "rotation": [
                0.5,
                0.5,
                -0.4999999403953552,
                0.5000000596046448
            ],
            "scale": [
                1.0,
                1.0,
                1.0
            ],
            "translation": [
                0.0,
                0.0,
                0.0
            ]
        },
        {
            "mesh": 4,
            "name": "Torus.004",
            "rotation": [
                0.0,
                0.7071068286895752,
                0.0,
                0.7071068286895752
            ],
            "scale": [
                1.0,
                1.0,
                1.0
            ],
            "translation": [
                0.0,
                0.0,
                0.0
            ]
        },
        {
            "children": [
                1,
                4,
                2,
                7,
                5,
                0,
                6,
                3
            ],
            "matrix": [
                -1.0,
                0.0,
                0.0,
                0.0,
                0.0,
                0.0,
                1.0,
                0.0,
                0.0,
                1.0,
                0.0,
                0.0,
                0.0,
                0.0,
                0.0,
                1.0
            ],
            "name": "Scene_root"
        }
    ],
    "samplers": [
        {
            "name": "default"
        }
    ],
    "scene": 0,
    "scenes": [
        {
            "extras": {
                "active_camera": 0,
                "background_color": [
                    0.05087608844041824,
                    0.05087608844041824,
                    0.05087608844041824
                ],
                "frames_per_second": 24
            },
            "name": "Scene",
            "nodes": [
                8
            ]
        }
    ]
}
